<svg width="1039" height="117" viewBox="0 0 1039 117" fill="none" xmlns="http://www.w3.org/2000/svg">
<g transform="translate(1.3886, 1)">
<path d="M0.000468775 93.47L28.7305 7.67H56.0305L84.6305 93.47H61.8805L42.6405 24.7H41.8605L22.4905 93.47H0.000468775ZM16.2505 78.26V63.44H70.9805V78.26H16.2505ZM118.681 95.29C112.528 95.29 107.241 94.38 102.821 92.56C98.4013 90.6533 94.8047 88.0533 92.0313 84.76C89.258 81.4667 87.2213 77.6967 85.9213 73.45C84.6213 69.2033 83.9713 64.6967 83.9713 59.93C83.9713 55.0767 84.6213 50.4833 85.9213 46.15C87.2213 41.73 89.2147 37.7867 91.9013 34.32C94.6747 30.7667 98.228 27.9933 102.561 26C106.981 24.0067 112.268 23.01 118.421 23.01C125.701 23.01 131.551 24.3967 135.971 27.17C140.478 29.8567 143.598 33.3667 145.331 37.7C147.151 42.0333 147.671 46.7133 146.891 51.74L128.691 53.17C128.865 50.05 128.518 47.4933 127.651 45.5C126.871 43.42 125.658 41.9033 124.011 40.95C122.365 39.91 120.371 39.39 118.031 39.39C115.951 39.39 114.088 39.78 112.441 40.56C110.881 41.34 109.538 42.5533 108.411 44.2C107.371 45.76 106.548 47.7533 105.941 50.18C105.421 52.6067 105.161 55.51 105.161 58.89C105.161 63.2233 105.638 66.95 106.591 70.07C107.631 73.19 109.148 75.5733 111.141 77.22C113.221 78.8667 115.821 79.69 118.941 79.69C122.148 79.69 124.575 78.91 126.221 77.35C127.868 75.79 128.951 73.84 129.471 71.5C129.991 69.0733 130.078 66.69 129.731 64.35L149.101 65.26C149.621 69.0733 149.448 72.8 148.581 76.44C147.715 79.9933 146.025 83.2 143.511 86.06C141.085 88.92 137.791 91.1733 133.631 92.82C129.558 94.4667 124.575 95.29 118.681 95.29ZM188.759 95.29C182.606 95.29 177.319 94.38 172.899 92.56C168.479 90.6533 164.883 88.0533 162.109 84.76C159.336 81.4667 157.299 77.6967 155.999 73.45C154.699 69.2033 154.049 64.6967 154.049 59.93C154.049 55.0767 154.699 50.4833 155.999 46.15C157.299 41.73 159.293 37.7867 161.979 34.32C164.753 30.7667 168.306 27.9933 172.639 26C177.059 24.0067 182.346 23.01 188.499 23.01C195.779 23.01 201.629 24.3967 206.049 27.17C210.556 29.8567 213.676 33.3667 215.409 37.7C217.229 42.0333 217.749 46.7133 216.969 51.74L198.769 53.17C198.943 50.05 198.596 47.4933 197.729 45.5C196.949 43.42 195.736 41.9033 194.089 40.95C192.443 39.91 190.449 39.39 188.109 39.39C186.029 39.39 184.166 39.78 182.519 40.56C180.959 41.34 179.616 42.5533 178.489 44.2C177.449 45.76 176.626 47.7533 176.019 50.18C175.499 52.6067 175.239 55.51 175.239 58.89C175.239 63.2233 175.716 66.95 176.669 70.07C177.709 73.19 179.226 75.5733 181.219 77.22C183.299 78.8667 185.899 79.69 189.019 79.69C192.226 79.69 194.653 78.91 196.299 77.35C197.946 75.79 199.029 73.84 199.549 71.5C200.069 69.0733 200.156 66.69 199.809 64.35L219.179 65.26C219.699 69.0733 219.526 72.8 218.659 76.44C217.793 79.9933 216.103 83.2 213.589 86.06C211.163 88.92 207.869 91.1733 203.709 92.82C199.636 94.4667 194.653 95.29 188.759 95.29ZM258.578 95.29C252.078 95.29 246.618 94.38 242.198 92.56C237.864 90.6533 234.354 88.0967 231.668 84.89C228.981 81.5967 227.031 77.87 225.818 73.71C224.691 69.55 224.128 65.1733 224.128 60.58C224.128 55.64 224.734 50.9167 225.948 46.41C227.248 41.9033 229.198 37.9167 231.798 34.45C234.484 30.8967 237.908 28.1233 242.068 26.13C246.314 24.05 251.384 23.01 257.278 23.01C263.171 23.01 268.198 24.05 272.358 26.13C276.604 28.1233 279.984 30.94 282.498 34.58C285.011 38.22 286.614 42.4233 287.308 47.19C288.088 51.9567 288.001 57.1133 287.048 62.66L237.258 63.44V52L270.928 51.35L268.198 57.98C268.718 53.9933 268.631 50.6567 267.938 47.97C267.331 45.1967 266.161 43.1167 264.428 41.73C262.694 40.2567 260.311 39.52 257.278 39.52C254.071 39.52 251.514 40.3433 249.608 41.99C247.701 43.6367 246.358 45.9767 245.578 49.01C244.798 51.9567 244.408 55.4667 244.408 59.54C244.408 66.56 245.578 71.6733 247.918 74.88C250.258 78.0867 253.854 79.69 258.708 79.69C260.788 79.69 262.521 79.43 263.908 78.91C265.294 78.39 266.421 77.6533 267.288 76.7C268.154 75.66 268.761 74.4467 269.108 73.06C269.454 71.5867 269.584 69.94 269.498 68.12L288.738 69.16C288.998 72.02 288.694 74.9667 287.828 78C287.048 81.0333 285.531 83.85 283.278 86.45C281.024 89.05 277.861 91.1733 273.788 92.82C269.801 94.4667 264.731 95.29 258.578 95.29ZM325.802 95.29C321.208 95.29 316.918 94.8133 312.932 93.86C309.032 92.9933 305.608 91.5633 302.662 89.57C299.802 87.5767 297.592 84.9333 296.032 81.64C294.558 78.26 293.952 74.1867 294.212 69.42L312.542 67.86C312.715 70.72 313.365 73.1033 314.492 75.01C315.618 76.83 317.178 78.1733 319.172 79.04C321.165 79.9067 323.592 80.34 326.452 80.34C329.138 80.34 331.435 79.9067 333.342 79.04C335.335 78.0867 336.332 76.5267 336.332 74.36C336.332 73.2333 335.985 72.3233 335.292 71.63C334.598 70.85 333.298 70.1567 331.392 69.55C329.572 68.8567 326.885 68.0767 323.332 67.21C318.912 66.0833 314.925 64.9567 311.372 63.83C307.818 62.7033 304.785 61.36 302.272 59.8C299.758 58.24 297.852 56.3333 296.552 54.08C295.252 51.74 294.602 48.88 294.602 45.5C294.602 40.7333 295.858 36.7033 298.372 33.41C300.972 30.03 304.525 27.4733 309.032 25.74C313.538 23.92 318.738 23.01 324.632 23.01C329.918 23.01 334.858 23.8333 339.452 25.48C344.045 27.1267 347.642 29.8133 350.242 33.54C352.928 37.2667 353.925 42.2067 353.232 48.36L335.292 50.05C335.552 47.5367 335.205 45.4133 334.252 43.68C333.298 41.86 331.912 40.5167 330.092 39.65C328.272 38.6967 326.062 38.22 323.462 38.22C320.515 38.22 318.218 38.7833 316.572 39.91C315.012 40.95 314.232 42.2933 314.232 43.94C314.232 45.24 314.708 46.3667 315.662 47.32C316.702 48.1867 318.262 48.9667 320.342 49.66C322.508 50.2667 325.282 50.96 328.662 51.74C331.608 52.3467 334.685 53.1267 337.892 54.08C341.098 55.0333 344.088 56.3333 346.862 57.98C349.635 59.54 351.888 61.62 353.622 64.22C355.355 66.82 356.222 70.1133 356.222 74.1C356.222 78.3467 355.052 82.0733 352.712 85.28C350.372 88.4867 346.948 90.9567 342.442 92.69C337.935 94.4233 332.388 95.29 325.802 95.29ZM392.96 95.29C388.367 95.29 384.077 94.8133 380.09 93.86C376.19 92.9933 372.767 91.5633 369.82 89.57C366.96 87.5767 364.75 84.9333 363.19 81.64C361.717 78.26 361.11 74.1867 361.37 69.42L379.7 67.86C379.873 70.72 380.523 73.1033 381.65 75.01C382.777 76.83 384.337 78.1733 386.33 79.04C388.323 79.9067 390.75 80.34 393.61 80.34C396.297 80.34 398.593 79.9067 400.5 79.04C402.493 78.0867 403.49 76.5267 403.49 74.36C403.49 73.2333 403.143 72.3233 402.45 71.63C401.757 70.85 400.457 70.1567 398.55 69.55C396.73 68.8567 394.043 68.0767 390.49 67.21C386.07 66.0833 382.083 64.9567 378.53 63.83C374.977 62.7033 371.943 61.36 369.43 59.8C366.917 58.24 365.01 56.3333 363.71 54.08C362.41 51.74 361.76 48.88 361.76 45.5C361.76 40.7333 363.017 36.7033 365.53 33.41C368.13 30.03 371.683 27.4733 376.19 25.74C380.697 23.92 385.897 23.01 391.79 23.01C397.077 23.01 402.017 23.8333 406.61 25.48C411.203 27.1267 414.8 29.8133 417.4 33.54C420.087 37.2667 421.083 42.2067 420.39 48.36L402.45 50.05C402.71 47.5367 402.363 45.4133 401.41 43.68C400.457 41.86 399.07 40.5167 397.25 39.65C395.43 38.6967 393.22 38.22 390.62 38.22C387.673 38.22 385.377 38.7833 383.73 39.91C382.17 40.95 381.39 42.2933 381.39 43.94C381.39 45.24 381.867 46.3667 382.82 47.32C383.86 48.1867 385.42 48.9667 387.5 49.66C389.667 50.2667 392.44 50.96 395.82 51.74C398.767 52.3467 401.843 53.1267 405.05 54.08C408.257 55.0333 411.247 56.3333 414.02 57.98C416.793 59.54 419.047 61.62 420.78 64.22C422.513 66.82 423.38 70.1133 423.38 74.1C423.38 78.3467 422.21 82.0733 419.87 85.28C417.53 88.4867 414.107 90.9567 409.6 92.69C405.093 94.4233 399.547 95.29 392.96 95.29ZM430.088 93.47V24.83H451.148V93.47H430.088ZM440.488 19.89C436.502 19.89 433.425 19.0667 431.258 17.42C429.178 15.6867 428.138 13.2167 428.138 10.01C428.138 6.71667 429.178 4.24666 431.258 2.59999C433.425 0.866662 436.502 -4.17233e-06 440.488 -4.17233e-06C444.562 -4.17233e-06 447.638 0.866662 449.718 2.59999C451.885 4.33333 452.968 6.80333 452.968 10.01C452.968 13.13 451.885 15.5567 449.718 17.29C447.638 19.0233 444.562 19.89 440.488 19.89ZM501.767 95.29C497.867 95.29 494.444 94.4233 491.497 92.69C488.55 90.9567 486.08 88.4 484.087 85.02C482.18 81.5533 480.75 77.3067 479.797 72.28H478.887V93.47H460.557V69.29V2.47H481.617V22.62C481.617 24.96 481.487 27.4733 481.227 30.16C481.054 32.8467 480.75 35.62 480.317 38.48C479.97 41.34 479.537 44.2433 479.017 47.19H480.187C480.967 41.47 482.354 36.8333 484.347 33.28C486.34 29.7267 488.897 27.1267 492.017 25.48C495.137 23.8333 498.69 23.01 502.677 23.01C507.79 23.01 512.21 24.31 515.937 26.91C519.75 29.51 522.697 33.41 524.777 38.61C526.857 43.81 527.897 50.3533 527.897 58.24C527.897 66.6467 526.727 73.58 524.387 79.04C522.134 84.5 519.014 88.5733 515.027 91.26C511.127 93.9467 506.707 95.29 501.767 95.29ZM494.357 78.52C496.957 78.52 499.167 77.6967 500.987 76.05C502.807 74.3167 504.194 72.0633 505.147 69.29C506.1 66.43 506.577 63.31 506.577 59.93C506.577 56.55 506.144 53.3867 505.277 50.44C504.41 47.4933 503.067 45.11 501.247 43.29C499.427 41.47 497.13 40.56 494.357 40.56C493.144 40.56 491.887 40.7767 490.587 41.21C489.374 41.6433 488.204 42.3367 487.077 43.29C486.037 44.1567 485.084 45.3267 484.217 46.8C483.35 48.1867 482.657 49.92 482.137 52C481.617 53.9933 481.357 56.29 481.357 58.89V59.8C481.357 63.0067 481.704 65.78 482.397 68.12C483.177 70.46 484.174 72.41 485.387 73.97C486.6 75.53 487.987 76.7 489.547 77.48C491.107 78.1733 492.71 78.52 494.357 78.52ZM535.459 93.47V2.47H556.519V93.47H535.459ZM598.558 95.29C592.058 95.29 586.598 94.38 582.178 92.56C577.845 90.6533 574.335 88.0967 571.648 84.89C568.961 81.5967 567.011 77.87 565.798 73.71C564.671 69.55 564.108 65.1733 564.108 60.58C564.108 55.64 564.715 50.9167 565.928 46.41C567.228 41.9033 569.178 37.9167 571.778 34.45C574.465 30.8967 577.888 28.1233 582.048 26.13C586.295 24.05 591.365 23.01 597.258 23.01C603.151 23.01 608.178 24.05 612.338 26.13C616.585 28.1233 619.965 30.94 622.478 34.58C624.991 38.22 626.595 42.4233 627.288 47.19C628.068 51.9567 627.981 57.1133 627.028 62.66L577.238 63.44V52L610.908 51.35L608.178 57.98C608.698 53.9933 608.611 50.6567 607.918 47.97C607.311 45.1967 606.141 43.1167 604.408 41.73C602.675 40.2567 600.291 39.52 597.258 39.52C594.051 39.52 591.495 40.3433 589.588 41.99C587.681 43.6367 586.338 45.9767 585.558 49.01C584.778 51.9567 584.388 55.4667 584.388 59.54C584.388 66.56 585.558 71.6733 587.898 74.88C590.238 78.0867 593.835 79.69 598.688 79.69C600.768 79.69 602.501 79.43 603.888 78.91C605.275 78.39 606.401 77.6533 607.268 76.7C608.135 75.66 608.741 74.4467 609.088 73.06C609.435 71.5867 609.565 69.94 609.478 68.12L628.718 69.16C628.978 72.02 628.675 74.9667 627.808 78C627.028 81.0333 625.511 83.85 623.258 86.45C621.005 89.05 617.841 91.1733 613.768 92.82C609.781 94.4667 604.711 95.29 598.558 95.29ZM662.679 93.47V7.67H694.269L711.819 68.64H712.079L729.239 7.67H759.139V93.47H739.639V28.86H739.379L720.009 93.47H701.549L682.439 28.86H682.179V93.47H662.679ZM787.123 95.29C783.656 95.29 780.363 94.6833 777.243 93.47C774.123 92.2567 771.566 90.3067 769.573 87.62C767.58 84.8467 766.583 81.1633 766.583 76.57C766.583 72.3233 767.406 68.9 769.053 66.3C770.7 63.6133 772.91 61.49 775.683 59.93C778.456 58.2833 781.49 57.07 784.783 56.29C788.076 55.4233 791.326 54.6867 794.533 54.08C799.04 53.2133 802.42 52.52 804.673 52C806.926 51.48 808.443 50.8733 809.223 50.18C810.09 49.4867 810.523 48.5333 810.523 47.32C810.523 44.8067 809.57 42.9 807.663 41.6C805.843 40.3 803.416 39.65 800.383 39.65C798.476 39.65 796.57 39.9967 794.663 40.69C792.756 41.3833 791.196 42.64 789.983 44.46C788.77 46.1933 788.206 48.7067 788.293 52L769.573 50.7C769.4 45.24 770.223 40.7333 772.043 37.18C773.863 33.54 776.333 30.7233 779.453 28.73C782.66 26.65 786.126 25.1767 789.853 24.31C793.666 23.4433 797.436 23.01 801.163 23.01C808.01 23.01 813.643 24.31 818.063 26.91C822.483 29.4233 825.733 33.1067 827.813 37.96C829.98 42.7267 831.063 48.5333 831.063 55.38V67.6C831.063 70.46 831.063 73.3633 831.063 76.31C831.063 79.17 831.063 82.03 831.063 84.89C831.063 87.75 831.063 90.61 831.063 93.47H812.863C812.863 90.35 812.863 87.1867 812.863 83.98C812.863 80.7733 812.863 77.3933 812.863 73.84H812.083C811.736 77.74 810.436 81.3367 808.183 84.63C806.016 87.8367 803.113 90.4367 799.473 92.43C795.92 94.3367 791.803 95.29 787.123 95.29ZM795.833 79.95C797.306 79.95 798.866 79.69 800.513 79.17C802.246 78.5633 803.85 77.61 805.323 76.31C806.883 75.01 808.14 73.2333 809.093 70.98C810.046 68.64 810.523 65.78 810.523 62.4V59.28L814.033 58.89C813.34 60.0167 812.17 60.9267 810.523 61.62C808.963 62.3133 807.186 62.8767 805.193 63.31C803.2 63.6567 801.163 64.0467 799.083 64.48C797.09 64.8267 795.226 65.3467 793.493 66.04C791.76 66.6467 790.33 67.5133 789.203 68.64C788.163 69.68 787.643 71.1533 787.643 73.06C787.643 75.3133 788.423 77.0467 789.983 78.26C791.63 79.3867 793.58 79.95 795.833 79.95ZM866.809 114.01C859.096 114.01 852.986 113.403 848.479 112.19C843.972 110.977 840.766 109.287 838.859 107.12C836.952 105.04 835.999 102.613 835.999 99.84C835.999 96.0267 837.516 92.9933 840.549 90.74C843.582 88.4 848.002 86.7967 853.809 85.93V85.28C849.389 85.28 845.922 84.5433 843.409 83.07C840.896 81.51 839.639 79.3867 839.639 76.7C839.639 74.1867 840.766 71.9333 843.019 69.94C845.359 67.9467 849.129 66.95 854.329 66.95V66.04C849.649 64.9133 845.922 62.7467 843.149 59.54C840.376 56.3333 838.989 52.1733 838.989 47.06C838.989 42.5533 840.116 38.6533 842.369 35.36C844.709 32.0667 848.089 29.51 852.509 27.69C856.929 25.7833 862.302 24.83 868.629 24.83H902.819V40.95L879.289 37.96V39C886.482 39.9533 891.336 41.6 893.849 43.94C896.449 46.1933 897.749 48.9233 897.749 52.13C897.749 55.3367 896.752 58.1967 894.759 60.71C892.852 63.2233 889.862 65.2167 885.789 66.69C881.716 68.0767 876.559 68.77 870.319 68.77C868.412 68.77 866.462 68.6833 864.469 68.51C862.562 68.3367 860.916 68.0767 859.529 67.73C858.056 68.3367 856.886 68.9867 856.019 69.68C855.239 70.2867 854.849 70.9367 854.849 71.63C854.849 72.0633 855.022 72.41 855.369 72.67C855.716 72.8433 856.192 72.9733 856.799 73.06C857.492 73.1467 858.272 73.19 859.139 73.19H879.939C881.759 73.19 884.012 73.32 886.699 73.58C889.472 73.7533 892.202 74.4033 894.889 75.53C897.662 76.57 899.959 78.3467 901.779 80.86C903.599 83.3733 904.509 86.9267 904.509 91.52C904.509 96.72 903.122 100.967 900.349 104.26C897.662 107.553 893.546 109.98 887.999 111.54C882.452 113.187 875.389 114.01 866.809 114.01ZM866.809 95.55C872.616 95.55 876.906 95.3333 879.679 94.9C882.452 94.5533 884.272 94.0333 885.139 93.34C886.006 92.6467 886.439 91.8667 886.439 91C886.439 89.7867 886.092 88.8333 885.399 88.14C884.706 87.4467 883.839 86.97 882.799 86.71C881.759 86.3633 880.719 86.19 879.679 86.19C878.726 86.1033 877.946 86.06 877.339 86.06H859.789C857.016 87.0133 855.109 87.9233 854.069 88.79C853.116 89.57 852.639 90.48 852.639 91.52C852.639 92.7333 853.202 93.6 854.329 94.12C855.542 94.7267 857.189 95.1167 859.269 95.29C861.436 95.4633 863.949 95.55 866.809 95.55ZM869.019 57.33C871.792 57.33 873.916 56.4633 875.389 54.73C876.949 52.9967 877.729 50.6133 877.729 47.58C877.729 44.5467 876.949 42.12 875.389 40.3C873.829 38.3933 871.662 37.44 868.889 37.44C866.202 37.44 864.036 38.3933 862.389 40.3C860.829 42.12 860.049 44.5467 860.049 47.58C860.049 49.5733 860.396 51.3067 861.089 52.78C861.782 54.2533 862.779 55.38 864.079 56.16C865.466 56.94 867.112 57.33 869.019 57.33ZM910.987 93.47V24.83H932.047V93.47H910.987ZM921.387 19.89C917.4 19.89 914.323 19.0667 912.157 17.42C910.077 15.6867 909.037 13.2167 909.037 10.01C909.037 6.71667 910.077 4.24666 912.157 2.59999C914.323 0.866662 917.4 -4.17233e-06 921.387 -4.17233e-06C925.46 -4.17233e-06 928.537 0.866662 930.617 2.59999C932.783 4.33333 933.867 6.80333 933.867 10.01C933.867 13.13 932.783 15.5567 930.617 17.29C928.537 19.0233 925.46 19.89 921.387 19.89ZM974.345 95.29C968.192 95.29 962.905 94.38 958.485 92.56C954.065 90.6533 950.469 88.0533 947.695 84.76C944.922 81.4667 942.885 77.6967 941.585 73.45C940.285 69.2033 939.635 64.6967 939.635 59.93C939.635 55.0767 940.285 50.4833 941.585 46.15C942.885 41.73 944.879 37.7867 947.565 34.32C950.339 30.7667 953.892 27.9933 958.225 26C962.645 24.0067 967.932 23.01 974.085 23.01C981.365 23.01 987.215 24.3967 991.635 27.17C996.142 29.8567 999.262 33.3667 1001 37.7C1002.82 42.0333 1003.34 46.7133 1002.56 51.74L984.355 53.17C984.529 50.05 984.182 47.4933 983.315 45.5C982.535 43.42 981.322 41.9033 979.675 40.95C978.029 39.91 976.035 39.39 973.695 39.39C971.615 39.39 969.752 39.78 968.105 40.56C966.545 41.34 965.202 42.5533 964.075 44.2C963.035 45.76 962.212 47.7533 961.605 50.18C961.085 52.6067 960.825 55.51 960.825 58.89C960.825 63.2233 961.302 66.95 962.255 70.07C963.295 73.19 964.812 75.5733 966.805 77.22C968.885 78.8667 971.485 79.69 974.605 79.69C977.812 79.69 980.239 78.91 981.885 77.35C983.532 75.79 984.615 73.84 985.135 71.5C985.655 69.0733 985.742 66.69 985.395 64.35L1004.77 65.26C1005.29 69.0733 1005.11 72.8 1004.25 76.44C1003.38 79.9933 1001.69 83.2 999.175 86.06C996.749 88.92 993.455 91.1733 989.295 92.82C985.222 94.4667 980.239 95.29 974.345 95.29ZM1022.71 95.16C1018.29 95.16 1014.96 94.2067 1012.7 92.3C1010.54 90.3933 1009.45 87.4467 1009.45 83.46C1009.45 79.3867 1010.54 76.3967 1012.7 74.49C1014.96 72.5833 1018.29 71.63 1022.71 71.63C1027.22 71.63 1030.6 72.5833 1032.85 74.49C1035.11 76.3967 1036.23 79.3867 1036.23 83.46C1036.23 91.26 1031.73 95.16 1022.71 95.16Z" fill="white"/>
</g>
</svg>
