<svg width="702" height="113" viewBox="0 0 702 113" fill="none" xmlns="http://www.w3.org/2000/svg">
<g transform="translate(1, 1)">
<path d="M-0.000194944 93.47V7.67003H21.1898V93.47H-0.000194944ZM31.0911 93.47V54.6V24.83H48.9011V52.78H49.9411C50.4611 46.02 51.5878 40.4734 53.3211 36.14C55.0545 31.72 57.5245 28.4267 60.7311 26.26C63.9378 24.0934 68.0111 23.01 72.9511 23.01C80.4045 23.01 85.9945 25.48 89.7211 30.42C93.5345 35.36 95.4411 42.7267 95.4411 52.52V93.47H74.3811V55.25C74.3811 50.57 73.6445 47.06 72.1711 44.72C70.7845 42.38 68.5311 41.21 65.4111 41.21C62.8111 41.21 60.5145 42.12 58.5211 43.94C56.5278 45.76 54.9678 48.7067 53.8411 52.78C52.7145 56.8534 52.1511 62.3134 52.1511 69.16V93.47H31.0911ZM131.519 95.03C123.459 95.03 117.436 92.9934 113.449 88.92C109.549 84.76 107.599 78.3467 107.599 69.68V41.21H100.059V27.95H100.449C105.823 27.2567 109.636 25.48 111.889 22.62C114.143 19.6734 115.529 15.2534 116.049 9.36003V9.10003H128.399V24.83H144.129V41.73H128.399V67.73C128.399 71.0234 129.179 73.3634 130.739 74.75C132.386 76.1367 134.379 76.83 136.719 76.83C137.933 76.83 139.189 76.6567 140.489 76.31C141.789 75.9634 143.003 75.4867 144.129 74.88V93.21C141.443 93.99 139.059 94.4667 136.979 94.64C134.899 94.9 133.079 95.03 131.519 95.03ZM173.271 95.29C165.817 95.29 160.271 92.69 156.631 87.49C153.077 82.29 151.301 74.3167 151.301 63.57V24.83H172.361V63.31C172.361 68.3367 173.054 71.8467 174.441 73.84C175.914 75.8334 177.994 76.83 180.681 76.83C182.587 76.83 184.321 76.3534 185.881 75.4C187.527 74.36 188.957 72.8434 190.171 70.85C191.384 68.77 192.294 66.1267 192.901 62.92C193.594 59.7134 193.941 55.8567 193.941 51.35V24.83H215.001V62.53V93.47H197.061V66.69H196.151C195.631 73.3634 194.461 78.8234 192.641 83.07C190.821 87.23 188.307 90.3067 185.101 92.3C181.894 94.2934 177.951 95.29 173.271 95.29ZM224.314 93.47V24.83H245.374V93.47H224.314ZM234.714 19.89C230.727 19.89 227.65 19.0667 225.484 17.42C223.404 15.6867 222.364 13.2167 222.364 10.01C222.364 6.7167 223.404 4.2467 225.484 2.60002C227.65 0.866692 230.727 2.63453e-05 234.714 2.63453e-05C238.787 2.63453e-05 241.864 0.866692 243.944 2.60002C246.11 4.33336 247.194 6.80336 247.194 10.01C247.194 13.13 246.11 15.5567 243.944 17.29C241.864 19.0234 238.787 19.89 234.714 19.89ZM282.213 95.03C274.153 95.03 268.129 92.9934 264.143 88.92C260.243 84.76 258.293 78.3467 258.293 69.68V41.21H250.753V27.95H251.143C256.516 27.2567 260.329 25.48 262.583 22.62C264.836 19.6734 266.223 15.2534 266.743 9.36003V9.10003H279.093V24.83H294.823V41.73H279.093V67.73C279.093 71.0234 279.873 73.3634 281.433 74.75C283.079 76.1367 285.073 76.83 287.413 76.83C288.626 76.83 289.883 76.6567 291.183 76.31C292.483 75.9634 293.696 75.4867 294.823 74.88V93.21C292.136 93.99 289.753 94.4667 287.673 94.64C285.593 94.9 283.773 95.03 282.213 95.03ZM302.644 93.47V24.83H323.704V93.47H302.644ZM313.044 19.89C309.057 19.89 305.981 19.0667 303.814 17.42C301.734 15.6867 300.694 13.2167 300.694 10.01C300.694 6.7167 301.734 4.2467 303.814 2.60002C305.981 0.866692 309.057 2.63453e-05 313.044 2.63453e-05C317.117 2.63453e-05 320.194 0.866692 322.274 2.60002C324.441 4.33336 325.524 6.80336 325.524 10.01C325.524 13.13 324.441 15.5567 322.274 17.29C320.194 19.0234 317.117 19.89 313.044 19.89ZM349.493 93.47L328.823 24.83H351.183L363.013 76.05H363.533L375.883 24.83H396.943L376.273 93.47H349.493ZM430.743 95.29C424.243 95.29 418.783 94.38 414.363 92.56C410.029 90.6534 406.519 88.0967 403.833 84.89C401.146 81.5967 399.196 77.87 397.983 73.71C396.856 69.55 396.293 65.1734 396.293 60.58C396.293 55.64 396.899 50.9167 398.113 46.41C399.413 41.9034 401.363 37.9167 403.963 34.45C406.649 30.8967 410.073 28.1234 414.233 26.13C418.479 24.05 423.549 23.01 429.443 23.01C435.336 23.01 440.363 24.05 444.523 26.13C448.769 28.1234 452.149 30.94 454.663 34.58C457.176 38.22 458.779 42.4234 459.473 47.19C460.253 51.9567 460.166 57.1134 459.213 62.66L409.423 63.44V52L443.093 51.35L440.363 57.98C440.883 53.9934 440.796 50.6567 440.103 47.97C439.496 45.1967 438.326 43.1167 436.593 41.73C434.859 40.2567 432.476 39.52 429.443 39.52C426.236 39.52 423.679 40.3434 421.773 41.99C419.866 43.6367 418.523 45.9767 417.743 49.01C416.963 51.9567 416.573 55.4667 416.573 59.54C416.573 66.56 417.743 71.6734 420.083 74.88C422.423 78.0867 426.019 79.69 430.873 79.69C432.953 79.69 434.686 79.43 436.073 78.91C437.459 78.39 438.586 77.6534 439.453 76.7C440.319 75.66 440.926 74.4467 441.273 73.06C441.619 71.5867 441.749 69.94 441.663 68.12L460.903 69.16C461.163 72.02 460.859 74.9667 459.993 78C459.213 81.0334 457.696 83.85 455.443 86.45C453.189 89.05 450.026 91.1734 445.953 92.82C441.966 94.4667 436.896 95.29 430.743 95.29ZM490.183 93.47L518.913 7.67003H546.213L574.813 93.47H552.063L532.823 24.7H532.043L512.673 93.47H490.183ZM506.433 78.26V63.44H561.163V78.26H506.433ZM579.783 93.47V56.16V24.83H597.983V52.13H599.023C599.543 44.85 600.539 39.13 602.013 34.97C603.573 30.7234 605.479 27.7334 607.733 26C610.073 24.18 612.673 23.27 615.533 23.27C617.093 23.27 618.696 23.4867 620.343 23.92C622.076 24.3534 623.766 25.0467 625.413 26L624.373 49.4C622.466 48.2734 620.603 47.45 618.783 46.93C616.963 46.3234 615.229 46.02 613.583 46.02C610.809 46.02 608.469 46.8 606.563 48.36C604.656 49.92 603.183 52.2167 602.143 55.25C601.189 58.2834 600.713 61.9667 600.713 66.3V93.47H579.783ZM660.025 95.03C651.965 95.03 645.942 92.9934 641.955 88.92C638.055 84.76 636.105 78.3467 636.105 69.68V41.21H628.565V27.95H628.955C634.328 27.2567 638.142 25.48 640.395 22.62C642.648 19.6734 644.035 15.2534 644.555 9.36003V9.10003H656.905V24.83H672.635V41.73H656.905V67.73C656.905 71.0234 657.685 73.3634 659.245 74.75C660.892 76.1367 662.885 76.83 665.225 76.83C666.438 76.83 667.695 76.6567 668.995 76.31C670.295 75.9634 671.508 75.4867 672.635 74.88V93.21C669.948 93.99 667.565 94.4667 665.485 94.64C663.405 94.9 661.585 95.03 660.025 95.03ZM675.873 110.24C677.433 105.82 678.516 101.79 679.123 98.15C679.816 94.5967 680.206 91.0867 680.293 87.62C680.466 84.1534 680.553 80.47 680.553 76.57H699.533C699.533 82.2034 699.143 87.1 698.363 91.26C697.67 95.42 696.716 99.0167 695.503 102.05C694.29 105.083 693.033 107.813 691.733 110.24H675.873Z" fill="white"/>
</g>
</svg>
