<svg width="702" height="113" viewBox="0 0 702 113" fill="none" xmlns="http://www.w3.org/2000/svg">
<mask id="path-1-outside-1_104_2" maskUnits="userSpaceOnUse" x="-0.445312" y="-0.529968" width="702" height="113" fill="black">
<rect fill="white" x="-0.445312" y="-0.529968" width="702" height="113"/>
<path d="M0.999805 94.47V8.67003H22.1898V94.47H0.999805ZM32.0911 94.47V55.6V25.83H49.9011V53.78H50.9411C51.4611 47.02 52.5878 41.4734 54.3211 37.14C56.0545 32.72 58.5245 29.4267 61.7311 27.26C64.9378 25.0934 69.0111 24.01 73.9511 24.01C81.4045 24.01 86.9945 26.48 90.7211 31.42C94.5345 36.36 96.4411 43.7267 96.4411 53.52V94.47H75.3811V56.25C75.3811 51.57 74.6445 48.06 73.1711 45.72C71.7845 43.38 69.5311 42.21 66.4111 42.21C63.8111 42.21 61.5145 43.12 59.5211 44.94C57.5278 46.76 55.9678 49.7067 54.8411 53.78C53.7145 57.8534 53.1511 63.3134 53.1511 70.16V94.47H32.0911ZM132.519 96.03C124.459 96.03 118.436 93.9934 114.449 89.92C110.549 85.76 108.599 79.3467 108.599 70.68V42.21H101.059V28.95H101.449C106.823 28.2567 110.636 26.48 112.889 23.62C115.143 20.6734 116.529 16.2534 117.049 10.36V10.1H129.399V25.83H145.129V42.73H129.399V68.73C129.399 72.0234 130.179 74.3634 131.739 75.75C133.386 77.1367 135.379 77.83 137.719 77.83C138.933 77.83 140.189 77.6567 141.489 77.31C142.789 76.9634 144.003 76.4867 145.129 75.88V94.21C142.443 94.99 140.059 95.4667 137.979 95.64C135.899 95.9 134.079 96.03 132.519 96.03ZM174.271 96.29C166.817 96.29 161.271 93.69 157.631 88.49C154.077 83.29 152.301 75.3167 152.301 64.57V25.83H173.361V64.31C173.361 69.3367 174.054 72.8467 175.441 74.84C176.914 76.8334 178.994 77.83 181.681 77.83C183.587 77.83 185.321 77.3534 186.881 76.4C188.527 75.36 189.957 73.8434 191.171 71.85C192.384 69.77 193.294 67.1267 193.901 63.92C194.594 60.7134 194.941 56.8567 194.941 52.35V25.83H216.001V63.53V94.47H198.061V67.69H197.151C196.631 74.3634 195.461 79.8234 193.641 84.07C191.821 88.23 189.307 91.3067 186.101 93.3C182.894 95.2934 178.951 96.29 174.271 96.29ZM225.314 94.47V25.83H246.374V94.47H225.314ZM235.714 20.89C231.727 20.89 228.65 20.0667 226.484 18.42C224.404 16.6867 223.364 14.2167 223.364 11.01C223.364 7.7167 224.404 5.2467 226.484 3.60002C228.65 1.86669 231.727 1.00003 235.714 1.00003C239.787 1.00003 242.864 1.86669 244.944 3.60002C247.11 5.33336 248.194 7.80336 248.194 11.01C248.194 14.13 247.11 16.5567 244.944 18.29C242.864 20.0234 239.787 20.89 235.714 20.89ZM283.213 96.03C275.153 96.03 269.129 93.9934 265.143 89.92C261.243 85.76 259.293 79.3467 259.293 70.68V42.21H251.753V28.95H252.143C257.516 28.2567 261.329 26.48 263.583 23.62C265.836 20.6734 267.223 16.2534 267.743 10.36V10.1H280.093V25.83H295.823V42.73H280.093V68.73C280.093 72.0234 280.873 74.3634 282.433 75.75C284.079 77.1367 286.073 77.83 288.413 77.83C289.626 77.83 290.883 77.6567 292.183 77.31C293.483 76.9634 294.696 76.4867 295.823 75.88V94.21C293.136 94.99 290.753 95.4667 288.673 95.64C286.593 95.9 284.773 96.03 283.213 96.03ZM303.644 94.47V25.83H324.704V94.47H303.644ZM314.044 20.89C310.057 20.89 306.981 20.0667 304.814 18.42C302.734 16.6867 301.694 14.2167 301.694 11.01C301.694 7.7167 302.734 5.2467 304.814 3.60002C306.981 1.86669 310.057 1.00003 314.044 1.00003C318.117 1.00003 321.194 1.86669 323.274 3.60002C325.441 5.33336 326.524 7.80336 326.524 11.01C326.524 14.13 325.441 16.5567 323.274 18.29C321.194 20.0234 318.117 20.89 314.044 20.89ZM350.493 94.47L329.823 25.83H352.183L364.013 77.05H364.533L376.883 25.83H397.943L377.273 94.47H350.493ZM431.743 96.29C425.243 96.29 419.783 95.38 415.363 93.56C411.029 91.6534 407.519 89.0967 404.833 85.89C402.146 82.5967 400.196 78.87 398.983 74.71C397.856 70.55 397.293 66.1734 397.293 61.58C397.293 56.64 397.899 51.9167 399.113 47.41C400.413 42.9034 402.363 38.9167 404.963 35.45C407.649 31.8967 411.073 29.1234 415.233 27.13C419.479 25.05 424.549 24.01 430.443 24.01C436.336 24.01 441.363 25.05 445.523 27.13C449.769 29.1234 453.149 31.94 455.663 35.58C458.176 39.22 459.779 43.4234 460.473 48.19C461.253 52.9567 461.166 58.1134 460.213 63.66L410.423 64.44V53L444.093 52.35L441.363 58.98C441.883 54.9934 441.796 51.6567 441.103 48.97C440.496 46.1967 439.326 44.1167 437.593 42.73C435.859 41.2567 433.476 40.52 430.443 40.52C427.236 40.52 424.679 41.3434 422.773 42.99C420.866 44.6367 419.523 46.9767 418.743 50.01C417.963 52.9567 417.573 56.4667 417.573 60.54C417.573 67.56 418.743 72.6734 421.083 75.88C423.423 79.0867 427.019 80.69 431.873 80.69C433.953 80.69 435.686 80.43 437.073 79.91C438.459 79.39 439.586 78.6534 440.453 77.7C441.319 76.66 441.926 75.4467 442.273 74.06C442.619 72.5867 442.749 70.94 442.663 69.12L461.903 70.16C462.163 73.02 461.859 75.9667 460.993 79C460.213 82.0334 458.696 84.85 456.443 87.45C454.189 90.05 451.026 92.1734 446.953 93.82C442.966 95.4667 437.896 96.29 431.743 96.29ZM491.183 94.47L519.913 8.67003H547.213L575.813 94.47H553.063L533.823 25.7H533.043L513.673 94.47H491.183ZM507.433 79.26V64.44H562.163V79.26H507.433ZM580.783 94.47V57.16V25.83H598.983V53.13H600.023C600.543 45.85 601.539 40.13 603.013 35.97C604.573 31.7234 606.479 28.7334 608.733 27C611.073 25.18 613.673 24.27 616.533 24.27C618.093 24.27 619.696 24.4867 621.343 24.92C623.076 25.3534 624.766 26.0467 626.413 27L625.373 50.4C623.466 49.2734 621.603 48.45 619.783 47.93C617.963 47.3234 616.229 47.02 614.583 47.02C611.809 47.02 609.469 47.8 607.563 49.36C605.656 50.92 604.183 53.2167 603.143 56.25C602.189 59.2834 601.713 62.9667 601.713 67.3V94.47H580.783ZM661.025 96.03C652.965 96.03 646.942 93.9934 642.955 89.92C639.055 85.76 637.105 79.3467 637.105 70.68V42.21H629.565V28.95H629.955C635.328 28.2567 639.142 26.48 641.395 23.62C643.648 20.6734 645.035 16.2534 645.555 10.36V10.1H657.905V25.83H673.635V42.73H657.905V68.73C657.905 72.0234 658.685 74.3634 660.245 75.75C661.892 77.1367 663.885 77.83 666.225 77.83C667.438 77.83 668.695 77.6567 669.995 77.31C671.295 76.9634 672.508 76.4867 673.635 75.88V94.21C670.948 94.99 668.565 95.4667 666.485 95.64C664.405 95.9 662.585 96.03 661.025 96.03ZM676.873 111.24C678.433 106.82 679.516 102.79 680.123 99.15C680.816 95.5967 681.206 92.0867 681.293 88.62C681.466 85.1534 681.553 81.47 681.553 77.57H700.533C700.533 83.2034 700.143 88.1 699.363 92.26C698.67 96.42 697.716 100.017 696.503 103.05C695.29 106.083 694.033 108.813 692.733 111.24H676.873Z"/>
</mask>
<path d="M0.999805 94.47H-0.000195026V95.47H0.999805V94.47ZM0.999805 8.67003V7.67003H-0.000195026V8.67003H0.999805ZM22.1898 8.67003H23.1898V7.67003H22.1898V8.67003ZM22.1898 94.47V95.47H23.1898V94.47H22.1898ZM0.999805 94.47H1.9998V8.67003H0.999805H-0.000195026V94.47H0.999805ZM0.999805 8.67003V9.67003H22.1898V8.67003V7.67003H0.999805V8.67003ZM22.1898 8.67003H21.1898V94.47H22.1898H23.1898V8.67003H22.1898ZM22.1898 94.47V93.47H0.999805V94.47V95.47H22.1898V94.47ZM32.0911 94.47H31.0911V95.47H32.0911V94.47ZM32.0911 25.83V24.83H31.0911V25.83H32.0911ZM49.9011 25.83H50.9011V24.83H49.9011V25.83ZM49.9011 53.78H48.9011V54.78H49.9011V53.78ZM50.9411 53.78V54.78H51.8672L51.9382 53.8567L50.9411 53.78ZM54.3211 37.14L55.2496 37.5114L55.2521 37.5051L54.3211 37.14ZM61.7311 27.26L61.1713 26.4314L61.7311 27.26ZM90.7211 31.42L89.9228 32.0223L89.9296 32.0311L90.7211 31.42ZM96.4411 94.47V95.47H97.4411V94.47H96.4411ZM75.3811 94.47H74.3811V95.47H75.3811V94.47ZM73.1711 45.72L72.3108 46.2298L72.3177 46.2414L72.3249 46.2528L73.1711 45.72ZM59.5211 44.94L58.8469 44.2015L59.5211 44.94ZM54.8411 53.78L53.8773 53.5134V53.5134L54.8411 53.78ZM53.1511 94.47V95.47H54.1511V94.47H53.1511ZM32.0911 94.47H33.0911V55.6H32.0911H31.0911V94.47H32.0911ZM32.0911 55.6H33.0911V25.83H32.0911H31.0911V55.6H32.0911ZM32.0911 25.83V26.83H49.9011V25.83V24.83H32.0911V25.83ZM49.9011 25.83H48.9011V53.78H49.9011H50.9011V25.83H49.9011ZM49.9011 53.78V54.78H50.9411V53.78V52.78H49.9011V53.78ZM50.9411 53.78L51.9382 53.8567C52.4536 47.1564 53.5668 41.7185 55.2496 37.5114L54.3211 37.14L53.3927 36.7686C51.6088 41.2283 50.4687 46.8837 49.9441 53.7033L50.9411 53.78ZM54.3211 37.14L55.2521 37.5051C56.9285 33.2304 59.2869 30.1184 62.291 28.0886L61.7311 27.26L61.1713 26.4314C57.7621 28.735 55.1805 32.2097 53.3902 36.7749L54.3211 37.14ZM61.7311 27.26L62.291 28.0886C65.292 26.0609 69.1557 25.01 73.9511 25.01V24.01V23.01C68.8666 23.01 64.5836 24.1258 61.1713 26.4314L61.7311 27.26ZM73.9511 24.01V25.01C81.1627 25.01 86.4246 27.3851 89.9228 32.0223L90.7211 31.42L91.5195 30.8178C87.5643 25.5749 81.6463 23.01 73.9511 23.01V24.01ZM90.7211 31.42L89.9296 32.0311C93.5501 36.7213 95.4411 43.8299 95.4411 53.52H96.4411H97.4411C97.4411 43.6235 95.5189 35.9988 91.5127 30.809L90.7211 31.42ZM96.4411 53.52H95.4411V94.47H96.4411H97.4411V53.52H96.4411ZM96.4411 94.47V93.47H75.3811V94.47V95.47H96.4411V94.47ZM75.3811 94.47H76.3811V56.25H75.3811H74.3811V94.47H75.3811ZM75.3811 56.25H76.3811C76.3811 51.4974 75.6389 47.7625 74.0174 45.1872L73.1711 45.72L72.3249 46.2528C73.6501 48.3575 74.3811 51.6427 74.3811 56.25H75.3811ZM73.1711 45.72L74.0314 45.2102C72.4352 42.5166 69.8224 41.21 66.4111 41.21V42.21V43.21C69.2398 43.21 71.1337 44.2434 72.3108 46.2298L73.1711 45.72ZM66.4111 42.21V41.21C63.5513 41.21 61.0167 42.2204 58.8469 44.2015L59.5211 44.94L60.1954 45.6785C62.0122 44.0197 64.0709 43.21 66.4111 43.21V42.21ZM59.5211 44.94L58.8469 44.2015C56.6567 46.2012 55.0281 49.3528 53.8773 53.5134L54.8411 53.78L55.8049 54.0466C56.9075 50.0606 58.3989 47.3188 60.1954 45.6785L59.5211 44.94ZM54.8411 53.78L53.8773 53.5134C52.7165 57.7103 52.1511 63.2716 52.1511 70.16H53.1511H54.1511C54.1511 63.3551 54.7124 57.9964 55.8049 54.0466L54.8411 53.78ZM53.1511 70.16H52.1511V94.47H53.1511H54.1511V70.16H53.1511ZM53.1511 94.47V93.47H32.0911V94.47V95.47H53.1511V94.47ZM114.449 89.92L113.72 90.604L113.727 90.6118L113.735 90.6195L114.449 89.92ZM108.599 42.21H109.599V41.21H108.599V42.21ZM101.059 42.21H100.059V43.21H101.059V42.21ZM101.059 28.95V27.95H100.059V28.95H101.059ZM101.449 28.95V29.95H101.513L101.577 29.9418L101.449 28.95ZM112.889 23.62L113.675 24.2389L113.679 24.2332L113.684 24.2275L112.889 23.62ZM117.049 10.36L118.045 10.4479L118.049 10.4041V10.36H117.049ZM117.049 10.1V9.10003H116.049V10.1H117.049ZM129.399 10.1H130.399V9.10003H129.399V10.1ZM129.399 25.83H128.399V26.83H129.399V25.83ZM145.129 25.83H146.129V24.83H145.129V25.83ZM145.129 42.73V43.73H146.129V42.73H145.129ZM129.399 42.73V41.73H128.399V42.73H129.399ZM131.739 75.75L131.075 76.4974L131.085 76.5063L131.095 76.5149L131.739 75.75ZM141.489 77.31L141.747 78.2763V78.2763L141.489 77.31ZM145.129 75.88H146.129V74.2058L144.655 74.9996L145.129 75.88ZM145.129 94.21L145.408 95.1704L146.129 94.961V94.21H145.129ZM137.979 95.64L137.896 94.6435L137.876 94.6452L137.855 94.6478L137.979 95.64ZM132.519 96.03V95.03C124.615 95.03 118.896 93.0337 115.164 89.2206L114.449 89.92L113.735 90.6195C117.976 94.953 124.303 97.03 132.519 97.03V96.03ZM114.449 89.92L115.179 89.2361C111.524 85.3377 109.599 79.2212 109.599 70.68H108.599H107.599C107.599 79.4722 109.574 86.1823 113.72 90.604L114.449 89.92ZM108.599 70.68H109.599V42.21H108.599H107.599V70.68H108.599ZM108.599 42.21V41.21H101.059V42.21V43.21H108.599V42.21ZM101.059 42.21H102.059V28.95H101.059H100.059V42.21H101.059ZM101.059 28.95V29.95H101.449V28.95V27.95H101.059V28.95ZM101.449 28.95L101.577 29.9418C107.085 29.2311 111.195 27.3859 113.675 24.2389L112.889 23.62L112.104 23.0012C110.076 25.5742 106.56 27.2823 101.321 27.9583L101.449 28.95ZM112.889 23.62L113.684 24.2275C116.102 21.0654 117.518 16.4278 118.045 10.4479L117.049 10.36L116.053 10.2721C115.541 16.079 114.183 20.2813 112.095 23.0126L112.889 23.62ZM117.049 10.36H118.049V10.1H117.049H116.049V10.36H117.049ZM117.049 10.1V11.1H129.399V10.1V9.10003H117.049V10.1ZM129.399 10.1H128.399V25.83H129.399H130.399V10.1H129.399ZM129.399 25.83V26.83H145.129V25.83V24.83H129.399V25.83ZM145.129 25.83H144.129V42.73H145.129H146.129V25.83H145.129ZM145.129 42.73V41.73H129.399V42.73V43.73H145.129V42.73ZM129.399 42.73H128.399V68.73H129.399H130.399V42.73H129.399ZM129.399 68.73H128.399C128.399 72.1462 129.204 74.8346 131.075 76.4974L131.739 75.75L132.404 75.0026C131.154 73.8921 130.399 71.9005 130.399 68.73H129.399ZM131.739 75.75L131.095 76.5149C132.938 78.067 135.166 78.83 137.719 78.83V77.83V76.83C135.593 76.83 133.834 76.2063 132.383 74.9851L131.739 75.75ZM137.719 77.83V78.83C139.028 78.83 140.372 78.6429 141.747 78.2763L141.489 77.31L141.232 76.3438C140.007 76.6705 138.837 76.83 137.719 76.83V77.83ZM141.489 77.31L141.747 78.2763C143.118 77.9106 144.405 77.4059 145.603 76.7605L145.129 75.88L144.655 74.9996C143.6 75.5675 142.46 76.0162 141.232 76.3438L141.489 77.31ZM145.129 75.88H144.129V94.21H145.129H146.129V75.88H145.129ZM145.129 94.21L144.85 93.2497C142.208 94.017 139.892 94.4772 137.896 94.6435L137.979 95.64L138.062 96.6366C140.227 96.4562 142.678 95.9631 145.408 95.1704L145.129 94.21ZM137.979 95.64L137.855 94.6478C135.803 94.9042 134.026 95.03 132.519 95.03V96.03V97.03C134.132 97.03 135.995 96.8958 138.103 96.6323L137.979 95.64ZM157.631 88.49L156.805 89.0543L156.811 89.0635L157.631 88.49ZM152.301 25.83V24.83H151.301V25.83H152.301ZM173.361 25.83H174.361V24.83H173.361V25.83ZM175.441 74.84L174.62 75.4111L174.628 75.4229L174.636 75.4344L175.441 74.84ZM186.881 76.4L187.402 77.2533L187.408 77.2495L187.415 77.2455L186.881 76.4ZM191.171 71.85L192.025 72.37L192.03 72.362L192.034 72.3539L191.171 71.85ZM193.901 63.92L192.923 63.7087L192.92 63.7214L192.918 63.7341L193.901 63.92ZM194.941 25.83V24.83H193.941V25.83H194.941ZM216.001 25.83H217.001V24.83H216.001V25.83ZM216.001 94.47V95.47H217.001V94.47H216.001ZM198.061 94.47H197.061V95.47H198.061V94.47ZM198.061 67.69H199.061V66.69H198.061V67.69ZM197.151 67.69V66.69H196.225L196.154 67.6123L197.151 67.69ZM193.641 84.07L194.557 84.4709L194.56 84.464L193.641 84.07ZM174.271 96.29V95.29C167.078 95.29 161.868 92.8 158.45 87.9166L157.631 88.49L156.811 89.0635C160.673 94.5801 166.556 97.29 174.271 97.29V96.29ZM157.631 88.49L158.456 87.9258C155.071 82.9726 153.301 75.2422 153.301 64.57H152.301H151.301C151.301 75.3912 153.083 83.6074 156.805 89.0542L157.631 88.49ZM152.301 64.57H153.301V25.83H152.301H151.301V64.57H152.301ZM152.301 25.83V26.83H173.361V25.83V24.83H152.301V25.83ZM173.361 25.83H172.361V64.31H173.361H174.361V25.83H173.361ZM173.361 64.31H172.361C172.361 69.3626 173.045 73.1472 174.62 75.4111L175.441 74.84L176.261 74.269C175.063 72.5462 174.361 69.3108 174.361 64.31H173.361ZM175.441 74.84L174.636 75.4344C176.316 77.7067 178.708 78.83 181.681 78.83V77.83V76.83C179.28 76.83 177.512 75.96 176.245 74.2456L175.441 74.84ZM181.681 77.83V78.83C183.763 78.83 185.678 78.3068 187.402 77.2533L186.881 76.4L186.359 75.5468C184.963 76.3999 183.411 76.83 181.681 76.83V77.83ZM186.881 76.4L187.415 77.2455C189.215 76.1084 190.747 74.4692 192.025 72.37L191.171 71.85L190.316 71.3301C189.167 73.2175 187.839 74.6117 186.347 75.5545L186.881 76.4ZM191.171 71.85L192.034 72.3539C193.321 70.1474 194.262 67.3875 194.883 64.1059L193.901 63.92L192.918 63.7341C192.325 66.8659 191.446 69.3927 190.307 71.3462L191.171 71.85ZM193.901 63.92L194.878 64.1314C195.591 60.8349 195.941 56.9034 195.941 52.35H194.941H193.941C193.941 56.81 193.597 60.5918 192.923 63.7087L193.901 63.92ZM194.941 52.35H195.941V25.83H194.941H193.941V52.35H194.941ZM194.941 25.83V26.83H216.001V25.83V24.83H194.941V25.83ZM216.001 25.83H215.001V63.53H216.001H217.001V25.83H216.001ZM216.001 63.53H215.001V94.47H216.001H217.001V63.53H216.001ZM216.001 94.47V93.47H198.061V94.47V95.47H216.001V94.47ZM198.061 94.47H199.061V67.69H198.061H197.061V94.47H198.061ZM198.061 67.69V66.69H197.151V67.69V68.69H198.061V67.69ZM197.151 67.69L196.154 67.6123C195.639 74.2212 194.484 79.564 192.721 83.6761L193.641 84.07L194.56 84.464C196.437 80.0827 197.622 74.5055 198.147 67.7677L197.151 67.69ZM193.641 84.07L192.724 83.6692C190.969 87.6821 188.575 90.5843 185.573 92.4507L186.101 93.3L186.628 94.1493C190.039 92.0291 192.672 88.778 194.557 84.4708L193.641 84.07ZM186.101 93.3L185.573 92.4507C182.558 94.3244 178.808 95.29 174.271 95.29V96.29V97.29C179.093 97.29 183.229 96.2623 186.628 94.1493L186.101 93.3ZM225.314 94.47H224.314V95.47H225.314V94.47ZM225.314 25.83V24.83H224.314V25.83H225.314ZM246.374 25.83H247.374V24.83H246.374V25.83ZM246.374 94.47V95.47H247.374V94.47H246.374ZM226.484 18.42L225.844 19.1882L225.861 19.2026L225.879 19.2162L226.484 18.42ZM226.484 3.60002L227.105 4.38408L227.108 4.38089L226.484 3.60002ZM244.944 3.60002L244.304 4.36825L244.311 4.37465L244.319 4.38089L244.944 3.60002ZM244.944 18.29L244.319 17.5092L244.311 17.5154L244.304 17.5218L244.944 18.29ZM225.314 94.47H226.314V25.83H225.314H224.314V94.47H225.314ZM225.314 25.83V26.83H246.374V25.83V24.83H225.314V25.83ZM246.374 25.83H245.374V94.47H246.374H247.374V25.83H246.374ZM246.374 94.47V93.47H225.314V94.47V95.47H246.374V94.47ZM235.714 20.89V19.89C231.848 19.89 229.017 19.0894 227.089 17.6239L226.484 18.42L225.879 19.2162C228.284 21.044 231.606 21.89 235.714 21.89V20.89ZM226.484 18.42L227.124 17.6518C225.315 16.1441 224.364 13.9805 224.364 11.01H223.364H222.364C222.364 14.4529 223.493 17.2293 225.844 19.1882L226.484 18.42ZM223.364 11.01H224.364C224.364 7.94106 225.321 5.79581 227.104 4.38407L226.484 3.60002L225.863 2.81598C223.486 4.69759 222.364 7.49234 222.364 11.01H223.364ZM226.484 3.60002L227.108 4.38089C229.035 2.83984 231.858 2.00002 235.714 2.00002V1.00002V2.28882e-05C231.597 2.28882e-05 228.266 0.893539 225.859 2.81915L226.484 3.60002ZM235.714 1.00002V2.00002C239.667 2.00002 242.475 2.84406 244.304 4.36825L244.944 3.60002L245.584 2.8318C243.253 0.889328 239.908 2.28882e-05 235.714 2.28882e-05V1.00002ZM244.944 3.60002L244.319 4.38089C246.21 5.89355 247.194 8.05398 247.194 11.01H248.194H249.194C249.194 7.55275 248.011 4.77316 245.568 2.81915L244.944 3.60002ZM248.194 11.01H247.194C247.194 13.8691 246.217 15.9908 244.319 17.5092L244.944 18.29L245.568 19.0709C248.004 17.1225 249.194 14.391 249.194 11.01H248.194ZM244.944 18.29L244.304 17.5218C242.475 19.046 239.667 19.89 235.714 19.89V20.89V21.89C239.908 21.89 243.253 21.0007 245.584 19.0583L244.944 18.29ZM265.143 89.92L264.413 90.604L264.42 90.6118L264.428 90.6195L265.143 89.92ZM259.293 42.21H260.293V41.21H259.293V42.21ZM251.753 42.21H250.753V43.21H251.753V42.21ZM251.753 28.95V27.95H250.753V28.95H251.753ZM252.143 28.95V29.95H252.207L252.271 29.9418L252.143 28.95ZM263.583 23.62L264.368 24.2389L264.372 24.2332L264.377 24.2275L263.583 23.62ZM267.743 10.36L268.739 10.4479L268.743 10.4041V10.36H267.743ZM267.743 10.1V9.10003H266.743V10.1H267.743ZM280.093 10.1H281.093V9.10003H280.093V10.1ZM280.093 25.83H279.093V26.83H280.093V25.83ZM295.823 25.83H296.823V24.83H295.823V25.83ZM295.823 42.73V43.73H296.823V42.73H295.823ZM280.093 42.73V41.73H279.093V42.73H280.093ZM282.433 75.75L281.768 76.4974L281.778 76.5063L281.788 76.5149L282.433 75.75ZM292.183 77.31L292.44 78.2763V78.2763L292.183 77.31ZM295.823 75.88H296.823V74.2058L295.348 74.9996L295.823 75.88ZM295.823 94.21L296.101 95.1704L296.823 94.961V94.21H295.823ZM288.673 95.64L288.589 94.6435L288.569 94.6452L288.548 94.6478L288.673 95.64ZM283.213 96.03V95.03C275.309 95.03 269.589 93.0337 265.857 89.2206L265.143 89.92L264.428 90.6195C268.669 94.953 274.997 97.03 283.213 97.03V96.03ZM265.143 89.92L265.872 89.2361C262.217 85.3377 260.293 79.2212 260.293 70.68H259.293H258.293C258.293 79.4722 260.268 86.1823 264.413 90.604L265.143 89.92ZM259.293 70.68H260.293V42.21H259.293H258.293V70.68H259.293ZM259.293 42.21V41.21H251.753V42.21V43.21H259.293V42.21ZM251.753 42.21H252.753V28.95H251.753H250.753V42.21H251.753ZM251.753 28.95V29.95H252.143V28.95V27.95H251.753V28.95ZM252.143 28.95L252.271 29.9418C257.778 29.2311 261.889 27.3859 264.368 24.2389L263.583 23.62L262.797 23.0012C260.77 25.5742 257.254 27.2823 252.015 27.9583L252.143 28.95ZM263.583 23.62L264.377 24.2275C266.795 21.0654 268.211 16.4278 268.739 10.4479L267.743 10.36L266.746 10.2721C266.234 16.079 264.877 20.2813 262.788 23.0126L263.583 23.62ZM267.743 10.36H268.743V10.1H267.743H266.743V10.36H267.743ZM267.743 10.1V11.1H280.093V10.1V9.10003H267.743V10.1ZM280.093 10.1H279.093V25.83H280.093H281.093V10.1H280.093ZM280.093 25.83V26.83H295.823V25.83V24.83H280.093V25.83ZM295.823 25.83H294.823V42.73H295.823H296.823V25.83H295.823ZM295.823 42.73V41.73H280.093V42.73V43.73H295.823V42.73ZM280.093 42.73H279.093V68.73H280.093H281.093V42.73H280.093ZM280.093 68.73H279.093C279.093 72.1462 279.898 74.8346 281.768 76.4974L282.433 75.75L283.097 75.0026C281.848 73.8921 281.093 71.9005 281.093 68.73H280.093ZM282.433 75.75L281.788 76.5149C283.632 78.067 285.859 78.83 288.413 78.83V77.83V76.83C286.286 76.83 284.527 76.2063 283.077 74.9851L282.433 75.75ZM288.413 77.83V78.83C289.722 78.83 291.065 78.6429 292.44 78.2763L292.183 77.31L291.925 76.3438C290.7 76.6705 289.53 76.83 288.413 76.83V77.83ZM292.183 77.31L292.44 78.2763C293.812 77.9106 295.098 77.4059 296.297 76.7605L295.823 75.88L295.348 74.9996C294.294 75.5675 293.154 76.0162 291.925 76.3438L292.183 77.31ZM295.823 75.88H294.823V94.21H295.823H296.823V75.88H295.823ZM295.823 94.21L295.544 93.2497C292.901 94.017 290.585 94.4772 288.589 94.6435L288.673 95.64L288.756 96.6366C290.92 96.4562 293.371 95.9631 296.101 95.1704L295.823 94.21ZM288.673 95.64L288.548 94.6478C286.497 94.9042 284.72 95.03 283.213 95.03V96.03V97.03C284.825 97.03 286.688 96.8958 288.797 96.6323L288.673 95.64ZM303.644 94.47H302.644V95.47H303.644V94.47ZM303.644 25.83V24.83H302.644V25.83H303.644ZM324.704 25.83H325.704V24.83H324.704V25.83ZM324.704 94.47V95.47H325.704V94.47H324.704ZM304.814 18.42L304.174 19.1882L304.191 19.2026L304.209 19.2162L304.814 18.42ZM304.814 3.60002L305.435 4.38408L305.439 4.38089L304.814 3.60002ZM323.274 3.60002L322.634 4.36825L322.641 4.37465L322.649 4.38089L323.274 3.60002ZM323.274 18.29L322.649 17.5092L322.641 17.5154L322.634 17.5218L323.274 18.29ZM303.644 94.47H304.644V25.83H303.644H302.644V94.47H303.644ZM303.644 25.83V26.83H324.704V25.83V24.83H303.644V25.83ZM324.704 25.83H323.704V94.47H324.704H325.704V25.83H324.704ZM324.704 94.47V93.47H303.644V94.47V95.47H324.704V94.47ZM314.044 20.89V19.89C310.178 19.89 307.347 19.0894 305.419 17.6239L304.814 18.42L304.209 19.2162C306.614 21.044 309.936 21.89 314.044 21.89V20.89ZM304.814 18.42L305.454 17.6518C303.645 16.1441 302.694 13.9805 302.694 11.01H301.694H300.694C300.694 14.4529 301.823 17.2293 304.174 19.1882L304.814 18.42ZM301.694 11.01H302.694C302.694 7.94106 303.651 5.79581 305.435 4.38407L304.814 3.60002L304.193 2.81598C301.816 4.69759 300.694 7.49234 300.694 11.01H301.694ZM304.814 3.60002L305.439 4.38089C307.365 2.83984 310.188 2.00002 314.044 2.00002V1.00002V2.28882e-05C309.927 2.28882e-05 306.596 0.893539 304.189 2.81915L304.814 3.60002ZM314.044 1.00002V2.00002C317.997 2.00002 320.805 2.84406 322.634 4.36825L323.274 3.60002L323.914 2.8318C321.583 0.889328 318.238 2.28882e-05 314.044 2.28882e-05V1.00002ZM323.274 3.60002L322.649 4.38089C324.54 5.89355 325.524 8.05398 325.524 11.01H326.524H327.524C327.524 7.55275 326.341 4.77316 323.899 2.81915L323.274 3.60002ZM326.524 11.01H325.524C325.524 13.8691 324.547 15.9908 322.649 17.5092L323.274 18.29L323.899 19.0709C326.334 17.1225 327.524 14.391 327.524 11.01H326.524ZM323.274 18.29L322.634 17.5218C320.805 19.046 317.997 19.89 314.044 19.89V20.89V21.89C318.238 21.89 321.583 21.0007 323.914 19.0583L323.274 18.29ZM350.493 94.47L349.535 94.7584L349.749 95.47H350.493V94.47ZM329.823 25.83V24.83H328.477L328.865 26.1184L329.823 25.83ZM352.183 25.83L353.157 25.605L352.978 24.83H352.183V25.83ZM364.013 77.05L363.038 77.2751L363.217 78.05H364.013V77.05ZM364.533 77.05V78.05H365.32L365.505 77.2844L364.533 77.05ZM376.883 25.83V24.83H376.095L375.91 25.5956L376.883 25.83ZM397.943 25.83L398.9 26.1184L399.288 24.83H397.943V25.83ZM377.273 94.47V95.47H378.016L378.23 94.7584L377.273 94.47ZM350.493 94.47L351.45 94.1817L330.78 25.5417L329.823 25.83L328.865 26.1184L349.535 94.7584L350.493 94.47ZM329.823 25.83V26.83H352.183V25.83V24.83H329.823V25.83ZM352.183 25.83L351.208 26.0551L363.038 77.2751L364.013 77.05L364.987 76.825L353.157 25.605L352.183 25.83ZM364.013 77.05V78.05H364.533V77.05V76.05H364.013V77.05ZM364.533 77.05L365.505 77.2844L377.855 26.0644L376.883 25.83L375.91 25.5956L363.56 76.8156L364.533 77.05ZM376.883 25.83V26.83H397.943V25.83V24.83H376.883V25.83ZM397.943 25.83L396.985 25.5417L376.315 94.1817L377.273 94.47L378.23 94.7584L398.9 26.1184L397.943 25.83ZM377.273 94.47V93.47H350.493V94.47V95.47H377.273V94.47ZM415.363 93.56L414.96 94.4753L414.971 94.4802L414.982 94.4847L415.363 93.56ZM404.833 85.89L404.058 86.5222L404.066 86.5322L404.833 85.89ZM398.983 74.71L398.017 74.9714L398.02 74.9808L398.023 74.99L398.983 74.71ZM399.113 47.41L398.152 47.1329L398.149 47.1414L398.147 47.1501L399.113 47.41ZM404.963 35.45L404.165 34.8469L404.163 34.85L404.963 35.45ZM415.233 27.13L415.665 28.0319L415.672 28.0281L415.233 27.13ZM445.523 27.13L445.075 28.0245L445.086 28.03L445.098 28.0353L445.523 27.13ZM455.663 35.58L454.84 36.1482V36.1482L455.663 35.58ZM460.473 48.19L459.483 48.334L459.484 48.3428L459.486 48.3515L460.473 48.19ZM460.213 63.66L460.228 64.6599L461.058 64.6469L461.198 63.8294L460.213 63.66ZM410.423 64.44H409.423V65.4558L410.438 65.4399L410.423 64.44ZM410.423 53L410.403 52.0002L409.423 52.0191V53H410.423ZM444.093 52.35L445.017 52.7308L445.598 51.3208L444.073 51.3502L444.093 52.35ZM441.363 58.98L440.371 58.8507L442.287 59.3608L441.363 58.98ZM441.103 48.97L440.126 49.1837L440.13 49.2019L440.134 49.2199L441.103 48.97ZM437.593 42.73L436.945 43.492L436.956 43.5016L436.968 43.5109L437.593 42.73ZM422.773 42.99L422.119 42.2332V42.2332L422.773 42.99ZM418.743 50.01L419.709 50.2659L419.711 50.2591L418.743 50.01ZM421.083 75.88L421.89 75.2906V75.2906L421.083 75.88ZM437.073 79.91L437.424 80.8464V80.8464L437.073 79.91ZM440.453 77.7L441.193 78.3727L441.207 78.3568L441.221 78.3402L440.453 77.7ZM442.273 74.06L443.243 74.3026L443.246 74.2891L442.273 74.06ZM442.663 69.12L442.717 68.1215L441.611 68.0617L441.664 69.1676L442.663 69.12ZM461.903 70.16L462.898 70.0695L462.82 69.2082L461.957 69.1615L461.903 70.16ZM460.993 79L460.031 78.7253L460.027 78.7381L460.024 78.751L460.993 79ZM456.443 87.45L457.198 88.105V88.105L456.443 87.45ZM446.953 93.82L446.578 92.8929L446.571 92.8958L446.953 93.82ZM431.743 96.29V95.29C425.329 95.29 420.008 94.3912 415.743 92.6354L415.363 93.56L414.982 94.4847C419.558 96.3689 425.156 97.29 431.743 97.29V96.29ZM415.363 93.56L415.765 92.6447C411.554 90.7917 408.175 88.322 405.599 85.2478L404.833 85.89L404.066 86.5322C406.864 89.8714 410.505 92.515 414.96 94.4753L415.363 93.56ZM404.833 85.89L405.607 85.2579C403.007 82.0704 401.119 78.464 399.943 74.43L398.983 74.71L398.023 74.99C399.273 79.276 401.285 83.123 404.058 86.5222L404.833 85.89ZM398.983 74.71L399.948 74.4486C398.846 70.3792 398.293 66.0909 398.293 61.58H397.293H396.293C396.293 66.2559 396.866 70.7208 398.017 74.9714L398.983 74.71ZM397.293 61.58H398.293C398.293 56.7227 398.889 52.0871 400.078 47.67L399.113 47.41L398.147 47.1501C396.91 51.7463 396.293 56.5574 396.293 61.58H397.293ZM399.113 47.41L400.073 47.6872C401.343 43.2874 403.241 39.412 405.763 36.05L404.963 35.45L404.163 34.85C401.484 38.4214 399.483 42.5194 398.152 47.1329L399.113 47.41ZM404.963 35.45L405.76 36.0531C408.347 32.6317 411.643 29.9587 415.665 28.0318L415.233 27.13L414.801 26.2282C410.502 28.288 406.951 31.1617 404.165 34.8469L404.963 35.45ZM415.233 27.13L415.672 28.0281C419.753 26.0296 424.665 25.01 430.443 25.01V24.01V23.01C424.433 23.01 419.206 24.0704 414.793 26.232L415.233 27.13ZM430.443 24.01V25.01C436.221 25.01 441.086 26.0299 445.075 28.0245L445.523 27.13L445.97 26.2356C441.639 24.0701 436.451 23.01 430.443 23.01V24.01ZM445.523 27.13L445.098 28.0353C449.194 29.9582 452.433 32.6627 454.84 36.1482L455.663 35.58L456.486 35.0118C453.866 31.2174 450.344 28.2886 445.948 26.2248L445.523 27.13ZM455.663 35.58L454.84 36.1482C457.258 39.6505 458.81 43.7059 459.483 48.334L460.473 48.19L461.462 48.0461C460.749 43.1409 459.094 38.7895 456.486 35.0118L455.663 35.58ZM460.473 48.19L459.486 48.3515C460.245 52.9922 460.165 58.0357 459.227 63.4906L460.213 63.66L461.198 63.8294C462.167 58.191 462.26 52.9212 461.46 48.0285L460.473 48.19ZM460.213 63.66L460.197 62.6602L410.407 63.4402L410.423 64.44L410.438 65.4399L460.228 64.6599L460.213 63.66ZM410.423 64.44H411.423V53H410.423H409.423V64.44H410.423ZM410.423 53L410.442 53.9998L444.112 53.3498L444.093 52.35L444.073 51.3502L410.403 52.0002L410.423 53ZM444.093 52.35L443.168 51.9693L440.438 58.5993L441.363 58.98L442.287 59.3608L445.017 52.7308L444.093 52.35ZM441.363 58.98L442.354 59.1094C442.884 55.0481 442.807 51.5729 442.071 48.7202L441.103 48.97L440.134 49.2199C440.785 51.7405 440.881 54.9386 440.371 58.8507L441.363 58.98ZM441.103 48.97L442.08 48.7563C441.438 45.8227 440.174 43.5149 438.217 41.9492L437.593 42.73L436.968 43.5109C438.477 44.7185 439.554 46.5707 440.126 49.1837L441.103 48.97ZM437.593 42.73L438.24 41.9681C436.273 40.2963 433.633 39.52 430.443 39.52V40.52V41.52C433.318 41.52 435.445 42.2171 436.945 43.492L437.593 42.73ZM430.443 40.52V39.52C427.063 39.52 424.252 40.3907 422.119 42.2332L422.773 42.99L423.426 43.7469C425.106 42.2961 427.409 41.52 430.443 41.52V40.52ZM422.773 42.99L422.119 42.2332C420.024 44.0424 418.592 46.5786 417.774 49.761L418.743 50.01L419.711 50.2591C420.453 47.3747 421.708 45.231 423.426 43.7468L422.773 42.99ZM418.743 50.01L417.776 49.7541C416.968 52.8069 416.573 56.4073 416.573 60.54H417.573H418.573C418.573 56.5261 418.957 53.1065 419.709 50.2659L418.743 50.01ZM417.573 60.54H416.573C416.573 67.628 417.746 73.0037 420.275 76.4695L421.083 75.88L421.89 75.2906C419.74 72.343 418.573 67.4921 418.573 60.54H417.573ZM421.083 75.88L420.275 76.4695C422.846 79.9925 426.78 81.69 431.873 81.69V80.69V79.69C427.259 79.69 424 78.1809 421.89 75.2906L421.083 75.88ZM431.873 80.69V81.69C434.028 81.69 435.889 81.4218 437.424 80.8464L437.073 79.91L436.721 78.9737C435.483 79.4383 433.878 79.69 431.873 79.69V80.69ZM437.073 79.91L437.424 80.8464C438.937 80.279 440.204 79.46 441.193 78.3727L440.453 77.7L439.713 77.0274C438.968 77.8467 437.982 78.5011 436.721 78.9737L437.073 79.91ZM440.453 77.7L441.221 78.3402C442.189 77.1781 442.862 75.8269 443.243 74.3026L442.273 74.06L441.302 73.8175C440.99 75.0665 440.449 76.1419 439.684 77.0598L440.453 77.7ZM442.273 74.06L443.246 74.2891C443.618 72.709 443.752 70.9672 443.661 69.0725L442.663 69.12L441.664 69.1676C441.747 70.9129 441.621 72.4644 441.299 73.831L442.273 74.06ZM442.663 69.12L442.609 70.1186L461.849 71.1586L461.903 70.16L461.957 69.1615L442.717 68.1215L442.663 69.12ZM461.903 70.16L460.907 70.2506C461.155 72.9762 460.867 75.7989 460.031 78.7253L460.993 79L461.954 79.2747C462.851 76.1345 463.171 73.0639 462.898 70.0695L461.903 70.16ZM460.993 79L460.024 78.751C459.286 81.6201 457.849 84.3004 455.687 86.7951L456.443 87.45L457.198 88.105C459.543 85.3997 461.139 82.4467 461.961 79.2491L460.993 79ZM456.443 87.45L455.687 86.7951C453.562 89.247 450.544 91.2896 446.578 92.8929L446.953 93.82L447.327 94.7471C451.508 93.0571 454.817 90.853 457.198 88.105L456.443 87.45ZM446.953 93.82L446.571 92.8958C442.745 94.4759 437.816 95.29 431.743 95.29V96.29V97.29C437.975 97.29 443.187 96.4575 447.334 94.7443L446.953 93.82ZM491.183 94.47L490.235 94.1525L489.794 95.47H491.183V94.47ZM519.913 8.67003V7.67003H519.193L518.965 8.35251L519.913 8.67003ZM547.213 8.67003L548.162 8.3538L547.934 7.67003H547.213V8.67003ZM575.813 94.47V95.47H577.201L576.762 94.1538L575.813 94.47ZM553.063 94.47L552.1 94.7395L552.304 95.47H553.063V94.47ZM533.823 25.7L534.786 25.4306L534.582 24.7H533.823V25.7ZM533.043 25.7V24.7H532.286L532.081 25.4289L533.043 25.7ZM513.673 94.47V95.47H514.43L514.636 94.7411L513.673 94.47ZM507.433 79.26H506.433V80.26H507.433V79.26ZM507.433 64.44V63.44H506.433V64.44H507.433ZM562.163 64.44H563.163V63.44H562.163V64.44ZM562.163 79.26V80.26H563.163V79.26H562.163ZM491.183 94.47L492.131 94.7876L520.861 8.98755L519.913 8.67003L518.965 8.35251L490.235 94.1525L491.183 94.47ZM519.913 8.67003V9.67003H547.213V8.67003V7.67003H519.913V8.67003ZM547.213 8.67003L546.264 8.98626L574.864 94.7863L575.813 94.47L576.762 94.1538L548.162 8.3538L547.213 8.67003ZM575.813 94.47V93.47H553.063V94.47V95.47H575.813V94.47ZM553.063 94.47L554.026 94.2006L534.786 25.4306L533.823 25.7L532.86 25.9695L552.1 94.7395L553.063 94.47ZM533.823 25.7V24.7H533.043V25.7V26.7H533.823V25.7ZM533.043 25.7L532.081 25.4289L512.711 94.1989L513.673 94.47L514.636 94.7411L534.006 25.9711L533.043 25.7ZM513.673 94.47V93.47H491.183V94.47V95.47H513.673V94.47ZM507.433 79.26H508.433V64.44H507.433H506.433V79.26H507.433ZM507.433 64.44V65.44H562.163V64.44V63.44H507.433V64.44ZM562.163 64.44H561.163V79.26H562.163H563.163V64.44H562.163ZM562.163 79.26V78.26H507.433V79.26V80.26H562.163V79.26ZM580.783 94.47H579.783V95.47H580.783V94.47ZM580.783 25.83V24.83H579.783V25.83H580.783ZM598.983 25.83H599.983V24.83H598.983V25.83ZM598.983 53.13H597.983V54.13H598.983V53.13ZM600.023 53.13V54.13H600.954L601.02 53.2013L600.023 53.13ZM603.013 35.97L602.074 35.6252L602.07 35.6362L603.013 35.97ZM608.733 27L609.342 27.7927L609.346 27.7894L608.733 27ZM621.343 24.92L621.088 25.8872L621.1 25.8902L621.343 24.92ZM626.413 27L627.412 27.0444L627.438 26.4385L626.914 26.1346L626.413 27ZM625.373 50.4L624.864 51.261L626.298 52.1082L626.372 50.4444L625.373 50.4ZM619.783 47.93L619.466 48.8787L619.487 48.8856L619.508 48.8916L619.783 47.93ZM607.563 49.36L608.196 50.134V50.134L607.563 49.36ZM603.143 56.25L602.197 55.9257L602.192 55.9379L602.189 55.9502L603.143 56.25ZM601.713 94.47V95.47H602.713V94.47H601.713ZM580.783 94.47H581.783V57.16H580.783H579.783V94.47H580.783ZM580.783 57.16H581.783V25.83H580.783H579.783V57.16H580.783ZM580.783 25.83V26.83H598.983V25.83V24.83H580.783V25.83ZM598.983 25.83H597.983V53.13H598.983H599.983V25.83H598.983ZM598.983 53.13V54.13H600.023V53.13V52.13H598.983V53.13ZM600.023 53.13L601.02 53.2013C601.537 45.9606 602.525 40.3421 603.955 36.3039L603.013 35.97L602.07 35.6362C600.553 39.9179 599.548 45.7394 599.025 53.0588L600.023 53.13ZM603.013 35.97L603.951 36.3148C605.481 32.1499 607.303 29.3614 609.342 27.7926L608.733 27L608.123 26.2074C605.656 28.1053 603.664 31.2968 602.074 35.6252L603.013 35.97ZM608.733 27L609.346 27.7894C611.518 26.1005 613.904 25.27 616.533 25.27V24.27V23.27C613.442 23.27 610.627 24.2595 608.119 26.2107L608.733 27ZM616.533 24.27V25.27C617.999 25.27 619.517 25.4736 621.088 25.8871L621.343 24.92L621.597 23.953C619.875 23.4997 618.186 23.27 616.533 23.27V24.27ZM621.343 24.92L621.1 25.8902C622.737 26.2994 624.34 26.9559 625.911 27.8654L626.413 27L626.914 26.1346C625.191 25.1375 623.415 24.4073 621.585 23.9499L621.343 24.92ZM626.413 27L625.414 26.9556L624.374 50.3556L625.373 50.4L626.372 50.4444L627.412 27.0444L626.413 27ZM625.373 50.4L625.881 49.5391C623.913 48.3762 621.972 47.5155 620.057 46.9685L619.783 47.93L619.508 48.8916C621.233 49.3846 623.018 50.1705 624.864 51.261L625.373 50.4ZM619.783 47.93L620.099 46.9813C618.193 46.3462 616.353 46.02 614.583 46.02V47.02V48.02C616.106 48.02 617.732 48.3006 619.466 48.8787L619.783 47.93ZM614.583 47.02V46.02C611.609 46.02 609.037 46.8615 606.929 48.5861L607.563 49.36L608.196 50.134C609.901 48.7385 612.009 48.02 614.583 48.02V47.02ZM607.563 49.36L606.929 48.5861C604.841 50.2945 603.279 52.7684 602.197 55.9257L603.143 56.25L604.089 56.5744C605.086 53.665 606.471 51.5455 608.196 50.134L607.563 49.36ZM603.143 56.25L602.189 55.9502C601.196 59.1086 600.713 62.8992 600.713 67.3H601.713H602.713C602.713 63.0342 603.182 59.4582 604.097 56.5499L603.143 56.25ZM601.713 67.3H600.713V94.47H601.713H602.713V67.3H601.713ZM601.713 94.47V93.47H580.783V94.47V95.47H601.713V94.47ZM642.955 89.92L642.226 90.604L642.233 90.6118L642.24 90.6195L642.955 89.92ZM637.105 42.21H638.105V41.21H637.105V42.21ZM629.565 42.21H628.565V43.21H629.565V42.21ZM629.565 28.95V27.95H628.565V28.95H629.565ZM629.955 28.95V29.95H630.019L630.083 29.9418L629.955 28.95ZM641.395 23.62L642.181 24.2389L642.185 24.2332L642.189 24.2275L641.395 23.62ZM645.555 10.36L646.551 10.4479L646.555 10.4041V10.36H645.555ZM645.555 10.1V9.10003H644.555V10.1H645.555ZM657.905 10.1H658.905V9.10003H657.905V10.1ZM657.905 25.83H656.905V26.83H657.905V25.83ZM673.635 25.83H674.635V24.83H673.635V25.83ZM673.635 42.73V43.73H674.635V42.73H673.635ZM657.905 42.73V41.73H656.905V42.73H657.905ZM660.245 75.75L659.581 76.4974L659.591 76.5063L659.601 76.5149L660.245 75.75ZM669.995 77.31L670.253 78.2763V78.2763L669.995 77.31ZM673.635 75.88H674.635V74.2058L673.161 74.9996L673.635 75.88ZM673.635 94.21L673.914 95.1704L674.635 94.961V94.21H673.635ZM666.485 95.64L666.402 94.6435L666.381 94.6452L666.361 94.6478L666.485 95.64ZM661.025 96.03V95.03C653.121 95.03 647.402 93.0337 643.67 89.2206L642.955 89.92L642.24 90.6195C646.482 94.953 652.809 97.03 661.025 97.03V96.03ZM642.955 89.92L643.685 89.2361C640.03 85.3377 638.105 79.2212 638.105 70.68H637.105H636.105C636.105 79.4722 638.08 86.1823 642.226 90.604L642.955 89.92ZM637.105 70.68H638.105V42.21H637.105H636.105V70.68H637.105ZM637.105 42.21V41.21H629.565V42.21V43.21H637.105V42.21ZM629.565 42.21H630.565V28.95H629.565H628.565V42.21H629.565ZM629.565 28.95V29.95H629.955V28.95V27.95H629.565V28.95ZM629.955 28.95L630.083 29.9418C635.591 29.2311 639.701 27.3859 642.181 24.2389L641.395 23.62L640.61 23.0012C638.582 25.5742 635.066 27.2823 629.827 27.9583L629.955 28.95ZM641.395 23.62L642.189 24.2275C644.607 21.0654 646.024 16.4278 646.551 10.4479L645.555 10.36L644.559 10.2721C644.047 16.079 642.689 20.2813 640.601 23.0126L641.395 23.62ZM645.555 10.36H646.555V10.1H645.555H644.555V10.36H645.555ZM645.555 10.1V11.1H657.905V10.1V9.10003H645.555V10.1ZM657.905 10.1H656.905V25.83H657.905H658.905V10.1H657.905ZM657.905 25.83V26.83H673.635V25.83V24.83H657.905V25.83ZM673.635 25.83H672.635V42.73H673.635H674.635V25.83H673.635ZM673.635 42.73V41.73H657.905V42.73V43.73H673.635V42.73ZM657.905 42.73H656.905V68.73H657.905H658.905V42.73H657.905ZM657.905 68.73H656.905C656.905 72.1462 657.71 74.8346 659.581 76.4974L660.245 75.75L660.909 75.0026C659.66 73.8921 658.905 71.9005 658.905 68.73H657.905ZM660.245 75.75L659.601 76.5149C661.444 78.067 663.671 78.83 666.225 78.83V77.83V76.83C664.099 76.83 662.339 76.2063 660.889 74.9851L660.245 75.75ZM666.225 77.83V78.83C667.534 78.83 668.878 78.6429 670.253 78.2763L669.995 77.31L669.737 76.3438C668.512 76.6705 667.343 76.83 666.225 76.83V77.83ZM669.995 77.31L670.253 78.2763C671.624 77.9106 672.91 77.4059 674.109 76.7605L673.635 75.88L673.161 74.9996C672.106 75.5675 670.966 76.0162 669.737 76.3438L669.995 77.31ZM673.635 75.88H672.635V94.21H673.635H674.635V75.88H673.635ZM673.635 94.21L673.356 93.2497C670.713 94.017 668.398 94.4772 666.402 94.6435L666.485 95.64L666.568 96.6366C668.732 96.4562 671.183 95.9631 673.914 95.1704L673.635 94.21ZM666.485 95.64L666.361 94.6478C664.309 94.9042 662.532 95.03 661.025 95.03V96.03V97.03C662.638 97.03 664.501 96.8958 666.609 96.6323L666.485 95.64ZM676.873 111.24L675.93 110.907L675.459 112.24H676.873V111.24ZM680.123 99.15L679.141 98.9585L679.139 98.972L679.136 98.9856L680.123 99.15ZM681.293 88.62L680.294 88.5701L680.293 88.5826L680.293 88.595L681.293 88.62ZM681.553 77.57V76.57H680.553V77.57H681.553ZM700.533 77.57H701.533V76.57H700.533V77.57ZM699.363 92.26L698.38 92.0757L698.378 92.0857L698.376 92.0956L699.363 92.26ZM696.503 103.05L695.574 102.679V102.679L696.503 103.05ZM692.733 111.24V112.24H693.332L693.614 111.712L692.733 111.24ZM676.873 111.24L677.816 111.573C679.39 107.112 680.491 103.025 681.109 99.3144L680.123 99.15L679.136 98.9856C678.542 102.555 677.475 106.528 675.93 110.907L676.873 111.24ZM680.123 99.15L681.104 99.3415C681.808 95.7357 682.204 92.17 682.293 88.645L681.293 88.62L680.293 88.595C680.208 92.0034 679.824 95.4577 679.141 98.9585L680.123 99.15ZM681.293 88.62L682.292 88.67C682.466 85.1848 682.553 81.4847 682.553 77.57H681.553H680.553C680.553 81.4554 680.466 85.1219 680.294 88.5701L681.293 88.62ZM681.553 77.57V78.57H700.533V77.57V76.57H681.553V77.57ZM700.533 77.57H699.533C699.533 83.1605 699.146 87.9926 698.38 92.0757L699.363 92.26L700.346 92.4443C701.14 88.2074 701.533 83.2463 701.533 77.57H700.533ZM699.363 92.26L698.376 92.0956C697.692 96.2041 696.755 99.728 695.574 102.679L696.503 103.05L697.431 103.421C698.678 100.305 699.647 96.636 700.349 92.4244L699.363 92.26ZM696.503 103.05L695.574 102.679C694.372 105.684 693.131 108.379 691.851 110.768L692.733 111.24L693.614 111.712C694.935 109.248 696.207 106.483 697.431 103.421L696.503 103.05ZM692.733 111.24V110.24H676.873V111.24V112.24H692.733V111.24Z" fill="white" mask="url(#path-1-outside-1_104_2)"/>
</svg>
