<svg width="752" height="219" viewBox="0 0 752 219" fill="none" xmlns="http://www.w3.org/2000/svg">
<path d="M749.938 5.83008V46.2539H724.978V212.962H703.546V46.2539H678.586V5.83008H749.938Z" stroke="#F9CD46" stroke-width="3"/>
<path d="M613.095 5.83008L613.39 6.94629L650.068 145.372L648.968 7.3418L648.956 5.83008H669.888V212.962H645.477L645.179 211.85L606.319 66.5488L607.424 211.451L607.436 212.962H586.376V5.83008H613.095Z" stroke="#F9CD46" stroke-width="3"/>
<path d="M574.772 5.83008V44.708H528.436V90.2666H568.628V126.36H528.436V173.775H575.028V212.962H506.876V5.83008H574.772Z" stroke="#F9CD46" stroke-width="3"/>
<path d="M417.189 5.83008L417.385 7.10254L439.761 153.147L461.65 7.10742L461.842 5.83008H491.13V212.962H470.583L470.594 211.451L471.67 62.9658L447.719 211.7L447.516 212.962H429.597L429.396 211.697L405.831 63.127L406.906 211.451L406.917 212.962H386.626V5.83008H417.189Z" stroke="#F9CD46" stroke-width="3"/>
<path d="M375.022 5.83008V44.708H328.686V90.2666H368.878V126.36H328.686V173.775H375.278V212.962H307.126V5.83008H375.022Z" stroke="#F9CD46" stroke-width="3"/>
<path d="M298.312 5.83008V46.2539H273.353V212.962H251.921V46.2539H226.961V5.83008H298.312Z" stroke="#F9CD46" stroke-width="3"/>
<path d="M204.571 5.83008L204.754 7.11914L233.682 211.252L233.925 212.962H210.907L210.741 211.65L205.817 172.754H173.87L168.917 211.651L168.75 212.962H145.733L145.976 211.252L174.903 7.11914L175.087 5.83008H204.571ZM178.111 139.443H201.602L189.891 46.9346L178.111 139.443Z" stroke="#F9CD46" stroke-width="3"/>
<path d="M152.562 5.83008V46.2539H127.603V212.962H106.171V46.2539H81.2109V5.83008H152.562Z" stroke="#F9CD46" stroke-width="3"/>
<path d="M38.1084 1.5C45.6681 1.50006 52.1446 4.23207 57.4541 9.65332C62.8105 14.8304 66.8847 22.1947 69.749 31.6289L70.0137 32.5C72.7128 41.5581 74.1739 52.2388 74.4238 64.5186L74.4404 65.3389L73.7588 65.7959L57.1182 76.9297L54.7842 78.4922V75.6836C54.7842 69.3537 54.3617 63.8789 53.5283 59.2471C52.691 54.5936 51.5307 50.8225 50.0771 47.8955L50.0684 47.8789L50.0605 47.8613C48.6033 44.7315 46.8295 42.4877 44.7871 41.0254L44.7656 41.0098C42.8191 39.5626 40.5763 38.8311 37.9805 38.8311C34.9949 38.8311 32.4386 39.7441 30.2451 41.5684C28.0937 43.4285 26.3981 45.9701 25.1924 49.2588L24.9863 49.8877C23.992 53.0685 23.4805 56.8138 23.4805 61.1465C23.4805 66.5393 24.3883 70.9199 26.1201 74.3584C27.9758 77.6642 30.3827 80.3727 33.3447 82.502C36.5313 84.7303 40.0181 86.862 43.8066 88.8965C47.5526 90.7936 51.325 93.2054 55.124 96.124C59.1045 98.9083 62.7423 102.626 66.0498 107.245L66.375 107.676C69.7082 112.173 72.3126 118.208 74.2422 125.699L74.4355 126.417C76.4019 133.895 77.3682 143.182 77.3682 154.243C77.3682 166.72 75.9915 177.694 73.2109 187.143C70.4264 196.604 66.2161 204.078 60.5137 209.46L60.5068 209.467L60.5 209.473C54.8223 214.699 47.7935 217.292 39.5166 217.292C33.7165 217.292 28.4524 215.887 23.7646 213.056V213.055C19.1659 210.431 15.2513 206.424 11.9971 201.111L11.9854 201.093L11.9746 201.073C8.81079 195.552 6.33321 188.806 4.51758 180.867L4.51562 180.856L4.5127 180.845C2.78278 172.694 1.79387 163.423 1.53613 153.043L1.51758 152.292L2.10938 151.827L18.2373 139.146L20.6084 137.281L20.6641 140.298C20.8332 149.492 21.7621 157.083 23.4209 163.104L23.7568 164.216C25.4732 169.666 27.7609 173.546 30.5293 176.011C33.5218 178.675 36.8008 179.961 40.4121 179.961C43.9332 179.961 46.819 178.931 49.1641 176.92C51.5871 174.842 53.4543 172.081 54.7432 168.583C56.0454 164.842 56.7041 160.787 56.7041 156.408C56.7041 151.188 55.87 147.12 54.3115 144.107C52.7083 141.008 50.5081 138.396 47.6973 136.262L47.6885 136.256L47.6807 136.249C44.854 134.039 41.5974 131.919 37.9053 129.891L36.3193 129.015C32.6236 126.936 28.9636 124.62 25.3398 122.066L25.334 122.062L25.3281 122.058C21.1735 119.067 17.3947 115.239 13.9863 110.593L13.9814 110.585L13.9756 110.578C10.6008 105.857 7.93485 99.8032 5.94043 92.4697L5.93848 92.4619L5.93652 92.4531C4.01607 85.0704 3.07228 75.8606 3.07227 64.8584C3.07227 52.1858 4.3613 41.2164 6.96875 31.9756L6.96973 31.9717C9.66114 22.5313 13.6016 15.0679 18.8594 9.68457C24.1708 4.24638 30.6139 1.5 38.1084 1.5Z" stroke="#F9CD46" stroke-width="3"/>
</svg>
